<svg width="34" height="34" viewBox="0 0 34 34" fill="none" xmlns="http://www.w3.org/2000/svg">
<path d="M17.0002 33.6667C7.79516 33.6667 0.333496 26.205 0.333496 17C0.333496 7.79501 7.79516 0.333344 17.0002 0.333344C26.2052 0.333344 33.6668 7.79501 33.6668 17C33.6668 26.205 26.2052 33.6667 17.0002 33.6667ZM8.66683 18.6667C8.66683 20.8768 9.5448 22.9964 11.1076 24.5592C12.6704 26.122 14.79 27 17.0002 27C19.2103 27 21.3299 26.122 22.8927 24.5592C24.4555 22.9964 25.3335 20.8768 25.3335 18.6667H22.0002C22.0002 19.9928 21.4734 21.2645 20.5357 22.2022C19.598 23.1399 18.3262 23.6667 17.0002 23.6667C15.6741 23.6667 14.4023 23.1399 13.4646 22.2022C12.5269 21.2645 12.0002 19.9928 12.0002 18.6667H8.66683ZM10.3335 15.3333C10.9965 15.3333 11.6324 15.07 12.1013 14.6011C12.5701 14.1323 12.8335 13.4964 12.8335 12.8333C12.8335 12.1703 12.5701 11.5344 12.1013 11.0656C11.6324 10.5967 10.9965 10.3333 10.3335 10.3333C9.67045 10.3333 9.03457 10.5967 8.56573 11.0656C8.09689 11.5344 7.8335 12.1703 7.8335 12.8333C7.8335 13.4964 8.09689 14.1323 8.56573 14.6011C9.03457 15.07 9.67045 15.3333 10.3335 15.3333ZM23.6668 15.3333C24.3299 15.3333 24.9658 15.07 25.4346 14.6011C25.9034 14.1323 26.1668 13.4964 26.1668 12.8333C26.1668 12.1703 25.9034 11.5344 25.4346 11.0656C24.9658 10.5967 24.3299 10.3333 23.6668 10.3333C23.0038 10.3333 22.3679 10.5967 21.8991 11.0656C21.4302 11.5344 21.1668 12.1703 21.1668 12.8333C21.1668 13.4964 21.4302 14.1323 21.8991 14.6011C22.3679 15.07 23.0038 15.3333 23.6668 15.3333Z" fill="#0898A0"/>
</svg>
