<svg width="14" height="14" viewBox="0 0 14 14" fill="none" xmlns="http://www.w3.org/2000/svg">
<path d="M11.6666 13.6667H2.33331C1.80288 13.6667 1.29417 13.456 0.9191 13.0809C0.544027 12.7058 0.333313 12.1971 0.333313 11.6667V1.00001C0.333313 0.823199 0.403551 0.65363 0.528575 0.528606C0.653599 0.403581 0.823169 0.333344 0.99998 0.333344H10.3333C10.5101 0.333344 10.6797 0.403581 10.8047 0.528606C10.9297 0.65363 11 0.823199 11 1.00001V9.00001H13.6666V11.6667C13.6666 12.1971 13.4559 12.7058 13.0809 13.0809C12.7058 13.456 12.1971 13.6667 11.6666 13.6667ZM11 10.3333V11.6667C11 11.8435 11.0702 12.0131 11.1952 12.1381C11.3203 12.2631 11.4898 12.3333 11.6666 12.3333C11.8435 12.3333 12.013 12.2631 12.1381 12.1381C12.2631 12.0131 12.3333 11.8435 12.3333 11.6667V10.3333H11ZM2.99998 3.66668V5.00001H8.33331V3.66668H2.99998ZM2.99998 6.33334V7.66668H8.33331V6.33334H2.99998ZM2.99998 9.00001V10.3333H6.33331V9.00001H2.99998Z" fill="#D0D5DD"/>
</svg>
