<svg width="81" height="24" viewBox="0 0 81 24" fill="none" xmlns="http://www.w3.org/2000/svg">
<path d="M5.41691 9.39916L5.2393 0.812998H0V23.3026H5.41691V14.455C5.55011 7.6122 8.21416 5.38938 15.3627 4.95353V0.464321C8.96897 0.464321 6.61573 2.86148 5.59451 9.39916H5.41691Z" fill="#0898A0"/>
<path d="M17.8127 23.3026H23.2296V0.812998H17.8127V23.3026Z" fill="#0898A0"/>
<path d="M37.2592 24C43.7418 24 47.5602 21.3849 47.5602 16.9829C47.5602 13.6269 45.3846 11.7091 40.9001 10.7503L34.8616 9.48633C32.9524 9.05049 31.8867 8.09163 31.8867 6.87126C31.8867 5.08429 33.7072 3.99467 36.7264 3.99467C40.0565 3.99467 42.0101 5.56372 42.0101 8.13521H47.205C47.205 3.0794 43.2534 0.115646 36.5488 0.115646C30.4215 0.115646 26.5586 2.81789 26.5586 7.00201C26.5586 10.4016 29.0895 12.5373 33.2632 13.3654L39.0353 14.5857C41.3885 15.1087 42.1877 15.8497 42.1877 17.2008C42.1877 19.0314 40.3229 20.121 37.3036 20.121C33.6184 20.121 31.5315 18.6391 31.3539 15.9804H26.0258C26.2034 21.1234 30.1995 24 37.2592 24Z" fill="#0898A0"/>
<path d="M72.1281 11.3169C72.1281 5.12787 67.8212 0.115646 60.8059 0.115646C53.7462 0.115646 49.0841 4.64844 49.0841 11.9707C49.0841 19.903 53.835 24 61.0723 24C66.1784 24 71.2401 20.9927 71.9505 15.4574H67.022C66.4448 17.9853 64.2692 19.8595 61.0723 19.8595C57.165 19.8595 54.4122 17.4187 54.279 13.0603H72.1281V11.3169ZM60.5839 4.25618C64.1804 4.25618 66.5336 6.43541 66.8 10.0529H54.279C54.5454 6.21749 57.2094 4.25618 60.5839 4.25618Z" fill="#0898A0"/>
<path d="M81 3.45224C81 5.35887 79.4254 6.90449 77.4831 6.90449C75.5408 6.90449 73.9662 5.35887 73.9662 3.45224C73.9662 1.54562 75.5408 0 77.4831 0C79.4254 0 81 1.54562 81 3.45224Z" fill="#0898A0"/>
</svg>
